#!OML:ASF H:\Male1\Project 1\Capture day 1\Session 1\Male1.ASF
:FULLY-SPECIFIED
:DEGREES
1052
root -25.4014 15.0457 -6.21519 -1260.43 3.65803 -179.093
lowerback 7.74823 0.720486 -2.46904
upperback 4.77876 1.26635 -2.08543
thorax 0.598793 0.80836 -0.849672
lowerneck -3.57556 -0.432833 2.11818
upperneck -2.62373 -0.456686 2.73964
head -0.212129 -0.17675 0.479156
rclavicle 2.18663e-015 3.18055e-015
rhumerus -34.841 7.69782 -88.9608
rradius 45.2447
rwrist -26.4544
rhand -24.5617 8.45907
rfingers 7.12502
rthumb 1.93484 -21.5119
lclavicle 2.18663e-015 3.18055e-015
lhumerus -37.3606 0.506017 76.1283
lradius 34.5876
lwrist -2.02626
lhand -21.6399 10.0715
lfingers 7.12502
lthumb 4.75652 39.9981
rfemur -9.93193 19.469 21.9906
rtibia 31.4013
rfoot -27.0008 -25.5415
rtoes -27.7653
lfemur -8.79523 -19.0205 -23.52
ltibia 31.3483
lfoot -30.5896 26.2221
ltoes 10.2044
1053
root -25.4197 15.0478 -6.23308 -1260.43 3.59989 -179.025
lowerback 7.594 0.724608 -2.53663
upperback 4.80017 1.2762 -2.11872
thorax 0.70577 0.812058 -0.843202
lowerneck -3.86077 -0.470457 2.07906
upperneck -2.42563 -0.518547 2.8294
head -0.105637 -0.200869 0.511569
rclavicle 2.3059e-014 -1.19271e-014
rhumerus -34.8483 7.55139 -88.9798
rradius 45.197
rwrist -26.4035
rhand -24.3994 8.34799
rfingers 7.12502
rthumb 2.09167 -21.6215
lclavicle 2.3059e-014 -1.19271e-014
lhumerus -38.0463 1.33869 75.2633
lradius 33.2691
lwrist -2.94784
lhand -21.2345 10.2231
lfingers 7.12502
lthumb 5.14789 40.1406
rfemur -9.8204 19.306 21.9957
rtibia 31.3237
rfoot -26.8963 -25.5176
rtoes -28.0779
lfemur -8.73255 -19.0477 -23.5538
ltibia 31.4116
lfoot -30.8228 26.0646
ltoes 10.6842
1054
root -25.4385 15.048 -6.25211 -1260.43 3.53593 -178.985
lowerback 7.44536 0.724317 -2.62819
upperback 4.81257 1.27854 -2.16499
thorax 0.800357 0.811726 -0.836422
lowerneck -4.21974 -0.511355 2.02123
upperneck -2.10502 -0.593295 2.92859
head 0.0507832 -0.229525 0.549777
rclavicle -7.15625e-015 -1.74931e-014
rhumerus -34.8872 7.36108 -89.0007
rradius 45.1496
rwrist -26.3753
rhand -24.2969 8.23829
rfingers 7.12502
rthumb 2.19061 -21.7302
lclavicle -7.15625e-015 -1.74931e-014
lhumerus -38.7954 2.16227 74.3566
lradius 32.1689
lwrist -3.72949
lhand -20.7248 10.2933
lfingers 7.12502
lthumb 5.64002 40.1983
rfemur -9.72964 19.1113 21.9671
rtibia 31.3209
rfoot -26.815 -25.4699
rtoes -28.3768
lfemur -8.62818 -19.0068 -23.6257
ltibia 31.4131
lfoot -30.9167 25.9615
ltoes 10.8161
1055
root -25.4577 15.0464 -6.27109 -1260.46 3.48696 -178.978
lowerback 7.32755 0.726126 -2.75249
upperback 4.81186 1.28068 -2.22416
thorax 0.864245 0.811113 -0.825445
lowerneck -4.58776 -0.536322 1.94284
upperneck -1.74542 -0.647602 3.07042
head 0.222143 -0.246555 0.604926
rclavicle -4.17448e-015 -3.10104e-014
rhumerus -34.9616 7.15036 -89.0286
rradius 45.1054
rwrist -26.3715
rhand -24.2245 8.10325
rfingers 7.12502
rthumb 2.26057 -21.8645
lclavicle -4.17448e-015 -3.10104e-014
lhumerus -39.6012 2.92874 73.444
lradius 31.2852
lwrist -4.28908
lhand -20.2278 10.3186
lfingers 7.12502
lthumb 6.11986 40.2102
rfemur -9.66079 18.9334 21.9078
rtibia 31.392
rfoot -26.7628 -25.417
rtoes -28.6887
lfemur -8.49223 -18.8241 -23.7256
ltibia 31.3613
lfoot -30.8328 25.8739
ltoes 10.5224
1056
root -25.4769 15.0427 -6.2896 -1260.51 3.46929 -179.016
lowerback 7.24683 0.731906 -2.93525
upperback 4.79951 1.28374 -2.29137
thorax 0.894991 0.81035 -0.79109
lowerneck -4.891 -0.521127 1.94128
upperneck -1.43969 -0.648584 3.14266
head 0.366499 -0.23892 0.627375
rclavicle 1.45113e-014 1.43125e-014
rhumerus -35.0718 6.94865 -89.0608
rradius 45.0663
rwrist -26.3805
rhand -24.1546 7.92507
rfingers 7.12502
rthumb 2.32805 -22.042
lclavicle 1.45113e-014 1.43125e-014
lhumerus -40.4616 3.5956 72.5754
lradius 30.6228
lwrist -4.56059
lhand -19.8778 10.3703
lfingers 7.12502
lthumb 6.45775 40.2518
rfemur -9.61292 18.7824 21.8072
rtibia 31.5375
rfoot -26.7392 -25.3473
rtoes -28.9799
lfemur -8.31654 -18.5358 -23.8724
ltibia 31.2579
lfoot -30.604 25.8344
ltoes 9.83113
1057
root -25.4961 15.038 -6.30852 -1260.59 3.48214 -179.099
lowerback 7.18824 0.742262 -3.18109
upperback 4.78052 1.28924 -2.36285
thorax 0.905888 0.810039 -0.726625
lowerneck -5.13095 -0.479493 1.97124
upperneck -1.17774 -0.612608 3.19417
head 0.487186 -0.214108 0.639192
rclavicle 3.77691e-015 8.74653e-015
rhumerus -35.2197 6.76843 -89.092
rradius 45.0385
rwrist -26.3981
rhand -24.085 7.79161
rfingers 7.12502
rthumb 2.3953 -22.1747
lclavicle 3.77691e-015 8.74653e-015
lhumerus -41.3478 4.19814 71.7591
lradius 30.1371
lwrist -4.62274
lhand -19.7397 10.4757
lfingers 7.12502
lthumb 6.59111 40.3532
rfemur -9.57388 18.6402 21.6624
rtibia 31.747
rfoot -26.7361 -25.2474
rtoes -29.2452
lfemur -8.09181 -18.1935 -24.0707
ltibia 31.1079
lfoot -30.3328 25.7923
ltoes 9.04944
1058
root -25.5155 15.0331 -6.32844 -1260.7 3.5097 -179.245
lowerback 7.13409 0.752158 -3.50883
upperback 4.76559 1.29189 -2.43822
thorax 0.917664 0.807395 -0.62036
lowerneck -5.36102 -0.415034 2.09917
upperneck -0.895297 -0.554941 3.11253
head 0.611833 -0.181052 0.594585
rclavicle 5.56597e-015 -4.85035e-014
rhumerus -35.3916 6.60662 -89.1159
rradius 45.0205
rwrist -26.4
rhand -24.0173 7.6768
rfingers 7.12502
rthumb 2.46065 -22.2888
lclavicle 5.56597e-015 -4.85035e-014
lhumerus -42.2259 4.75482 71.0077
lradius 29.796
lwrist -4.56702
lhand -19.7131 10.6216
lfingers 7.12502
lthumb 6.61674 40.4982
rfemur -9.53601 18.4799 21.452
rtibia 32.0055
rfoot -26.7467 -25.1053
rtoes -29.4849
lfemur -7.81497 -17.8611 -24.3442
ltibia 30.9196
lfoot -30.0945 25.732
ltoes 8.39059
1059
root -25.5352 15.0285 -6.34938 -1260.83 3.54027 -179.427
lowerback 7.08279 0.7618 -3.87688
upperback 4.75172 1.29386 -2.52053
thorax 0.928835 0.804281 -0.498872
lowerneck -5.53166 -0.35503 2.17348
upperneck -0.659488 -0.495956 3.09654
head 0.713368 -0.147211 0.579126
rclavicle -1.35174e-014 1.43125e-014
rhumerus -35.5851 6.42305 -89.1376
rradius 45.0013
rwrist -26.3584
rhand -23.9537 7.64095
rfingers 7.12502
rthumb 2.52208 -22.3239
lclavicle -1.35174e-014 1.43125e-014
lhumerus -43.0705 5.19249 70.3534
lradius 29.5703
lwrist -4.42631
lhand -19.81 10.8221
lfingers 7.12502
lthumb 6.5232 40.7016
rfemur -9.49157 18.2793 21.1979
rtibia 32.286
rfoot -26.7564 -24.9118
rtoes -29.7075
lfemur -7.49621 -17.6053 -24.6712
ltibia 30.7115
lfoot -29.968 25.6436
ltoes 8.10061
1060
root -25.5551 15.0245 -6.37127 -1260.97 3.57342 -179.604
lowerback 7.0197 0.770842 -4.23702
upperback 4.74296 1.29777 -2.60533
thorax 0.952205 0.802504 -0.384343
lowerneck -5.68614 -0.310867 2.21009
upperneck -0.440531 -0.454365 3.13217
head 0.807949 -0.121182 0.585539
rclavicle -7.95139e-016 4.92986e-014
rhumerus -35.7755 6.20477 -89.1626
rradius 44.968
rwrist -26.2753
rhand -23.8812 7.66797
rfingers 7.12502
rthumb 2.59204 -22.296
lclavicle -7.95139e-016 4.92986e-014
lhumerus -43.8311 5.53233 69.7802
lradius 29.4143
lwrist -4.23303
lhand -19.9356 11.0456
lfingers 7.12502
lthumb 6.40196 40.9289
rfemur -9.44331 18.0344 20.9432
rtibia 32.5697
rfoot -26.7553 -24.6712
rtoes -29.9452
lfemur -7.15491 -17.4473 -25.0053
ltibia 30.5002
lfoot -29.9685 25.5371
ltoes 8.23002
1061
root -25.5748 15.0215 -6.39397 -1261.12 3.61517 -179.734
lowerback 6.94378 0.779677 -4.5411
upperback 4.74595 1.30688 -2.68556
thorax 0.995547 0.804225 -0.296398
lowerneck -5.83358 -0.275356 2.24575
upperneck -0.253067 -0.422037 3.18358
head 0.891956 -0.0994358 0.59686
rclavicle -4.37326e-015 4.77083e-015
rhumerus -35.9296 5.95201 -89.1977
rradius 44.9061
rwrist -26.1755
rhand -23.781 7.74197
rfingers 7.12502
rthumb 2.68891 -22.2208
lclavicle -4.37326e-015 4.77083e-015
lhumerus -44.4497 5.80925 69.2752
lradius 29.2578
lwrist -4.09208
lhand -20.0948 11.3039
lfingers 7.12502
lthumb 6.24831 41.1918
rfemur -9.38745 17.7541 20.7374
rtibia 32.8439
rfoot -26.7461 -24.3885
rtoes -30.1589
lfemur -6.79994 -17.3835 -25.3011
ltibia 30.3009
lfoot -30.0788 25.4422
ltoes 8.69559
